P3 20 10 255 120 200 50 115 197 57 110 195 65 105 192 72 100 190 80 95 187 87 90 185 95 85 182 102 80 180 110 75 177 117 70 175 125 65 172 132 60 170 140 55 167 147 50 165 155 45 162 162 40 160 170 35 157 177 30 155 185 25 152 192 
120 200 50 115 197 57 110 195 65 105 192 72 100 190 80 95 187 87 90 185 95 85 182 102 80 180 110 75 177 117 70 175 125 65 172 132 60 170 140 55 167 147 50 165 155 45 162 162 40 160 170 35 157 177 30 155 185 25 152 192 
120 200 50 115 197 57 110 195 65 105 192 72 100 190 80 95 187 87 90 185 95 85 182 102 80 180 110 75 177 117 70 175 125 65 172 132 60 170 140 55 167 147 50 165 155 45 162 162 40 160 170 35 157 177 30 155 185 25 152 192 
120 200 50 115 197 57 110 195 65 105 192 72 100 190 80 95 187 87 90 185 95 85 182 102 80 180 110 75 177 117 70 175 125 65 172 132 60 170 140 55 167 147 50 165 155 45 162 162 40 160 170 35 157 177 30 155 185 25 152 192 
120 200 50 115 197 57 110 195 65 105 192 72 100 190 80 95 187 87 90 185 95 85 182 102 80 180 110 75 177 117 70 175 125 65 172 132 60 170 140 55 167 147 50 165 155 45 162 162 40 160 170 35 157 177 30 155 185 25 152 192 
120 200 50 115 197 57 110 195 65 105 192 72 100 190 80 95 187 87 90 185 95 85 182 102 80 180 110 75 177 117 70 175 125 65 172 132 60 170 140 55 167 147 50 165 155 45 162 162 40 160 170 35 157 177 30 155 185 25 152 192 
120 200 50 115 197 57 110 195 65 105 192 72 100 190 80 95 187 87 90 185 95 85 182 102 80 180 110 75 177 117 70 175 125 65 172 132 60 170 140 55 167 147 50 165 155 45 162 162 40 160 170 35 157 177 30 155 185 25 152 192 
120 200 50 115 197 57 110 195 65 105 192 72 100 190 80 95 187 87 90 185 95 85 182 102 80 180 110 75 177 117 70 175 125 65 172 132 60 170 140 55 167 147 50 165 155 45 162 162 40 160 170 35 157 177 30 155 185 25 152 192 
120 200 50 115 197 57 110 195 65 105 192 72 100 190 80 95 187 87 90 185 95 85 182 102 80 180 110 75 177 117 70 175 125 65 172 132 60 170 140 55 167 147 50 165 155 45 162 162 40 160 170 35 157 177 30 155 185 25 152 192 
120 200 50 115 197 57 110 195 65 105 192 72 100 190 80 95 187 87 90 185 95 85 182 102 80 180 110 75 177 117 70 175 125 65 172 132 60 170 140 55 167 147 50 165 155 45 162 162 40 160 170 35 157 177 30 155 185 25 152 192 
